<svg width="19" height="12" viewBox="0 0 19 12" fill="none" xmlns="http://www.w3.org/2000/svg">
<path fill-rule="evenodd" clip-rule="evenodd" d="M0 0H19V0.923438H0V0ZM0 1.84688H19V2.77031H0V1.84688ZM0 3.69141H19V4.61719H0V3.69141ZM0 5.53828H19V6.46172H0V5.53828ZM0 7.38516H19V8.30859H0V7.38516ZM0 9.22969H19V10.1531H0V9.22969ZM0 11.0766H19V12H0V11.0766Z" fill="#BD3D44"/>
<path fill-rule="evenodd" clip-rule="evenodd" d="M0 0.922852H19V1.84629H0V0.922852ZM0 2.76973H19V3.69082H0V2.76973ZM0 4.61426H19V5.5377H0V4.61426ZM0 6.46113H19V7.38457H0V6.46113ZM0 8.30801H19V9.23145H0V8.30801ZM0 10.1525H19V11.076H0V10.1525Z" fill="white"/>
<path fill-rule="evenodd" clip-rule="evenodd" d="M0 0H9.62617V6.46172H0V0Z" fill="#192F5D"/>
<path fill-rule="evenodd" clip-rule="evenodd" d="M0.801758 0.275391L0.89082 0.530859H1.17285L0.945247 0.687891L1.03184 0.945703L0.801758 0.786328L0.574154 0.943359L0.660742 0.687891L0.430664 0.530859H0.717643L0.801758 0.275391ZM2.40736 0.275391L2.49395 0.530859H2.77845L2.54837 0.687891L2.63496 0.945703L2.40736 0.786328L2.17728 0.943359L2.26387 0.687891L2.03626 0.530859H2.31829L2.40736 0.275391ZM4.01048 0.275391L4.09954 0.530859H4.3791L4.1515 0.687891L4.23809 0.945703L4.00801 0.786328L3.7804 0.943359L3.86699 0.687891L3.63691 0.530859H3.92142L4.01048 0.275391ZM5.61608 0.275391L5.70267 0.530859H5.98717L5.7571 0.687891L5.84616 0.945703L5.61608 0.786328L5.386 0.943359L5.47507 0.687891L5.24499 0.530859H5.52702L5.61608 0.275391ZM7.21921 0.275391L7.30827 0.530859H7.5903L7.3627 0.687891L7.44928 0.945703L7.21921 0.786328L6.9916 0.943359L7.07819 0.687891L6.85059 0.530859H7.13262L7.21921 0.275391ZM8.82481 0.275391L8.91139 0.530859H9.1959L8.96582 0.687891L9.05488 0.945703L8.82481 0.786328L8.59473 0.943359L8.68379 0.687891L8.45371 0.530859H8.73822L8.82481 0.275391ZM1.60579 0.922266L1.69238 1.17773H1.97689L1.74681 1.33477L1.83092 1.59023L1.60827 1.4332L1.37819 1.59023L1.45983 1.33477L1.23717 1.17773H1.51921L1.60579 0.922266ZM3.20892 0.922266L3.29798 1.17773H3.58001L3.34993 1.33477L3.439 1.59023L3.20892 1.4332L2.97884 1.59023L3.0679 1.33477L2.83783 1.17773H3.12233L3.20892 0.922266ZM4.81452 0.922266L4.90111 1.17773H5.18561L4.95553 1.33477L5.04212 1.59023L4.81452 1.4332L4.58444 1.59023L4.67103 1.33477L4.44342 1.17773H4.72546L4.81452 0.922266ZM6.41764 0.922266L6.50671 1.17773H6.78874L6.55866 1.33477L6.64772 1.59023L6.41764 1.4332L6.19004 1.59023L6.27663 1.33477L6.04655 1.17773H6.33353L6.41764 0.922266ZM8.02324 0.922266L8.10983 1.17773H8.39434L8.16426 1.33477L8.25085 1.59023L8.02324 1.4332L7.79316 1.59023L7.87975 1.33477L7.65215 1.17773H7.93418L8.02324 0.922266ZM0.801758 1.5668L0.89082 1.82695H1.17285L0.945247 1.98398L1.03184 2.23945L0.801758 2.08008L0.574154 2.23945L0.660742 1.98164L0.430664 1.82461H0.717643L0.801758 1.5668ZM2.40736 1.5668L2.49395 1.82461H2.77845L2.54837 1.98164L2.63496 2.23711L2.40736 2.07773L2.17728 2.23711L2.26387 1.9793L2.03626 1.82227H2.31829L2.40736 1.5668ZM4.01048 1.5668L4.09954 1.82461H4.3791L4.1515 1.98164L4.23809 2.23711L4.00801 2.07773L3.7804 2.23711L3.86699 1.9793L3.63691 1.82227H3.92142L4.01048 1.5668ZM5.61608 1.5668L5.70267 1.82461H5.98717L5.7571 1.98164L5.84616 2.23711L5.61608 2.07773L5.386 2.23711L5.47507 1.9793L5.24499 1.82227H5.52702L5.61608 1.5668ZM7.21921 1.5668L7.30827 1.82461H7.5903L7.3627 1.98164L7.44928 2.23711L7.21921 2.07773L6.9916 2.23711L7.07819 1.9793L6.85059 1.82227H7.13262L7.21921 1.5668ZM8.82481 1.5668L8.91139 1.82461H9.1959L8.96582 1.98164L9.05488 2.23711L8.82481 2.07773L8.59473 2.23711L8.68379 1.9793L8.45371 1.82227H8.73822L8.82481 1.5668ZM1.60579 2.21367L1.69238 2.46914H1.97689L1.74681 2.62617L1.8334 2.88398L1.60579 2.72461L1.37572 2.88164L1.4623 2.62617L1.2347 2.46914H1.51673L1.60579 2.21367ZM3.20892 2.21367L3.29798 2.46914H3.58001L3.34993 2.62617L3.439 2.88398L3.20892 2.72461L2.97884 2.88164L3.0679 2.62617L2.83783 2.46914H3.12233L3.20892 2.21367ZM4.81452 2.21367L4.90111 2.46914H5.18561L4.95553 2.62617L5.04212 2.88398L4.81452 2.72461L4.58444 2.88164L4.67103 2.62617L4.44342 2.46914H4.72546L4.81452 2.21367ZM6.41764 2.21367L6.50671 2.46914H6.78874L6.56113 2.62617L6.64772 2.88398L6.41764 2.72461L6.19004 2.88164L6.27663 2.62617L6.04655 2.46914H6.33353L6.41764 2.21367ZM8.02324 2.21367L8.10983 2.46914H8.39434L8.16426 2.62617L8.25085 2.88398L8.02324 2.72461L7.79316 2.88164L7.87975 2.62617L7.65215 2.46914H7.93418L8.02324 2.21367ZM0.801758 2.86055L0.89082 3.11602H1.17285L0.945247 3.27305L1.03184 3.53086L0.801758 3.37148L0.574154 3.52852L0.660742 3.27305L0.430664 3.11602H0.717643L0.801758 2.86055ZM2.40736 2.86055L2.49395 3.11602H2.77845L2.54837 3.27305L2.63496 3.52852L2.40736 3.37148L2.17728 3.52852L2.26387 3.27305L2.03626 3.11602H2.31829L2.40736 2.86055ZM4.01048 2.86055L4.09954 3.11602H4.3791L4.1515 3.27305L4.23809 3.53086L4.00801 3.37148L3.7804 3.52852L3.86699 3.27305L3.63691 3.11602H3.92142L4.01048 2.86055ZM5.61608 2.86055L5.70267 3.11602H5.98717L5.7571 3.27305L5.84616 3.53086L5.61608 3.37148L5.386 3.52852L5.47507 3.27305L5.24499 3.11602H5.52702L5.61608 2.86055ZM7.21921 2.86055L7.30827 3.11602H7.5903L7.3627 3.27305L7.44928 3.53086L7.21921 3.37148L6.9916 3.52852L7.07819 3.27305L6.85059 3.11602H7.13262L7.21921 2.86055ZM8.82481 2.86055L8.91139 3.11602H9.1959L8.96582 3.27305L9.05488 3.53086L8.82481 3.37148L8.59473 3.52852L8.68379 3.27305L8.45371 3.11602H8.73822L8.82481 2.86055ZM1.60579 3.50742L1.69238 3.76289H1.97689L1.74681 3.91992L1.8334 4.17539L1.60579 4.01602L1.37572 4.17539L1.4623 3.91758L1.2347 3.76055H1.51673L1.60579 3.50742ZM3.20892 3.50742L3.29798 3.76289H3.58001L3.34993 3.91992L3.439 4.17539L3.20892 4.01602L2.97884 4.17539L3.0679 3.91758L2.83783 3.76055H3.12233L3.20892 3.50742ZM4.81452 3.50742L4.90111 3.76289H5.18561L4.95553 3.91992L5.04212 4.17539L4.81452 4.01602L4.58444 4.17539L4.67103 3.91758L4.44342 3.76055H4.72546L4.81452 3.50742ZM6.41764 3.50742L6.50671 3.76289H6.78874L6.56113 3.91992L6.64772 4.17539L6.41764 4.01602L6.19004 4.17539L6.27663 3.91758L6.04655 3.76055H6.33353L6.41764 3.50742ZM8.02324 3.50742L8.10983 3.76289H8.39434L8.16426 3.91992L8.25085 4.17539L8.02324 4.01602L7.79316 4.17539L7.87975 3.91758L7.65215 3.76055H7.93418L8.02324 3.50742ZM0.801758 4.15195L0.89082 4.40977H1.17285L0.945247 4.5668L1.03184 4.81992L0.801758 4.66289L0.574154 4.81992L0.660742 4.56445L0.430664 4.40742H0.717643L0.801758 4.15195ZM2.40736 4.15195L2.49395 4.40977H2.77845L2.54837 4.5668L2.63743 4.81992L2.40736 4.66289L2.17728 4.81992L2.26634 4.56445L2.03626 4.40742H2.31829L2.40736 4.15195ZM4.01048 4.15195L4.09954 4.40977H4.3791L4.1515 4.5668L4.23809 4.81992L4.00801 4.66289L3.7804 4.81992L3.86699 4.56445L3.63691 4.40742H3.92142L4.01048 4.15195ZM5.61608 4.15195L5.70267 4.40977H5.98717L5.7571 4.5668L5.84616 4.81992L5.61608 4.66289L5.386 4.81992L5.47507 4.56445L5.24499 4.40742H5.52702L5.61608 4.15195ZM7.21921 4.15195L7.30827 4.40977H7.5903L7.3627 4.5668L7.44928 4.81992L7.21921 4.66289L6.9916 4.81992L7.07819 4.56445L6.85059 4.40742H7.13262L7.21921 4.15195ZM8.82481 4.15195L8.91139 4.40977H9.1959L8.96582 4.5668L9.05488 4.81992L8.82481 4.66289L8.59473 4.81992L8.68379 4.56445L8.45371 4.40742H8.73822L8.82481 4.15195ZM1.60579 4.79883L1.69238 5.0543H1.97689L1.74681 5.21133L1.8334 5.46914L1.60579 5.30977L1.37572 5.4668L1.4623 5.21133L1.2347 5.0543H1.51673L1.60579 4.79883ZM3.20892 4.79883L3.29798 5.0543H3.58001L3.34993 5.21133L3.439 5.46914L3.20892 5.30977L2.97884 5.4668L3.0679 5.21133L2.83783 5.0543H3.12233L3.20892 4.79883ZM4.81452 4.79883L4.90111 5.0543H5.18561L4.95553 5.21133L5.04212 5.46914L4.81452 5.30977L4.58444 5.4668L4.67103 5.21133L4.44342 5.0543H4.72546L4.81452 4.79883ZM6.41764 4.79883L6.50671 5.0543H6.78874L6.56113 5.21133L6.64772 5.46914L6.41764 5.30977L6.19004 5.4668L6.27663 5.21133L6.04655 5.0543H6.33353L6.41764 4.79883ZM8.02324 4.79883L8.10983 5.0543H8.39434L8.16426 5.21133L8.25085 5.46914L8.02324 5.30977L7.79316 5.4668L7.87975 5.21133L7.65215 5.0543H7.93418L8.02324 4.79883ZM0.801758 5.4457L0.89082 5.70117H1.17285L0.945247 5.8582L1.03184 6.11367L0.801758 5.95664L0.574154 6.11367L0.660742 5.85586L0.430664 5.69883H0.717643L0.801758 5.4457ZM2.40736 5.4457L2.49395 5.70117H2.77845L2.54837 5.8582L2.63743 6.11367L2.40736 5.95664L2.17728 6.11367L2.26634 5.85586L2.03626 5.69883H2.31829L2.40736 5.4457ZM4.01048 5.4457L4.09954 5.70117H4.3791L4.15645 5.8582L4.24303 6.11367L4.01296 5.95664L3.78535 6.11367L3.87194 5.85586L3.64186 5.69883H3.92637L4.01048 5.4457ZM5.61608 5.4457L5.70267 5.70117H5.98717L5.7571 5.8582L5.84616 6.11367L5.61608 5.95664L5.386 6.11367L5.47507 5.85586L5.24499 5.69883H5.52702L5.61608 5.4457ZM7.21921 5.4457L7.30827 5.70117H7.5903L7.3627 5.8582L7.44928 6.11367L7.21921 5.95664L6.9916 6.11367L7.07819 5.85586L6.85059 5.69883H7.13262L7.21921 5.4457ZM8.82481 5.4457L8.91139 5.70117H9.1959L8.96582 5.8582L9.05488 6.11367L8.82481 5.95664L8.59473 6.11367L8.68379 5.85586L8.45371 5.69883H8.73822L8.82481 5.4457Z" fill="white"/>
</svg>
